<?xml version="1.0" encoding="UTF-8" standalone="no"?>
<svg
   viewBox="0 0 512 512"
   width="100%"
   height="100%"
   version="1.1"
   id="svg32"
   sodipodi:docname="icon.svg"
   inkscape:version="1.4.4 (dcaf3e7d9e, 2026-05-05)"
   xmlns:inkscape="http://www.inkscape.org/namespaces/inkscape"
   xmlns:sodipodi="http://sodipodi.sourceforge.net/DTD/sodipodi-0.dtd"
   xmlns:xlink="http://www.w3.org/1999/xlink"
   xmlns="http://www.w3.org/2000/svg"
   xmlns:svg="http://www.w3.org/2000/svg">
  <sodipodi:namedview
     id="namedview32"
     pagecolor="#ffffff"
     bordercolor="#000000"
     borderopacity="0.25"
     inkscape:showpageshadow="2"
     inkscape:pageopacity="0.0"
     inkscape:pagecheckerboard="0"
     inkscape:deskcolor="#d1d1d1"
     inkscape:zoom="1.8203125"
     inkscape:cx="436.46352"
     inkscape:cy="277.15021"
     inkscape:window-width="2560"
     inkscape:window-height="1374"
     inkscape:window-x="0"
     inkscape:window-y="0"
     inkscape:window-maximized="1"
     inkscape:current-layer="svg32" />
  <defs
     id="defs8">
    <linearGradient
       id="bgGrad"
       x1="0%"
       y1="0%"
       x2="100%"
       y2="100%">
      <stop
         offset="0%"
         stop-color="#2D3342"
         id="stop1" />
      <stop
         offset="100%"
         stop-color="#171A21"
         id="stop2" />
    </linearGradient>
    <linearGradient
       id="rustGrad"
       x1="0%"
       y1="0%"
       x2="100%"
       y2="100%">
      <stop
         offset="0%"
         stop-color="#F46623"
         id="stop3" />
      <stop
         offset="100%"
         stop-color="#A22E00"
         id="stop4" />
    </linearGradient>
    <linearGradient
       id="godotGrad"
       x1="0%"
       y1="0%"
       x2="100%"
       y2="0%">
      <stop
         offset="0%"
         stop-color="#478CBF"
         id="stop5" />
      <stop
         offset="100%"
         stop-color="#72B6E8"
         id="stop6" />
    </linearGradient>
    <linearGradient
       id="mathGrad"
       x1="227.93114"
       y1="124.60947"
       x2="227.93114"
       y2="239.45926"
       gradientTransform="matrix(0.8962138,0,0,1.1158052,0,20)"
       gradientUnits="userSpaceOnUse">
      <stop
         offset="0%"
         stop-color="#FFFFFF"
         id="stop7" />
      <stop
         offset="100%"
         stop-color="#8892A3"
         id="stop8" />
    </linearGradient>
    <filter
       id="dropShadow"
       x="0"
       y="0"
       width="1"
       height="1">
      <feDropShadow
         dx="0"
         dy="6"
         stdDeviation="8"
         flood-color="#000000"
         flood-opacity="0.45" />
    </filter>
    <filter
       id="glow"
       x="-0.081328363"
       y="-0.063296703"
       width="1.1626567"
       height="1.1265934">
      <feGaussianBlur
         stdDeviation="3"
         result="blur"
         id="feGaussianBlur8" />
      <feComposite
         in="SourceGraphic"
         in2="blur"
         operator="over"
         id="feComposite8" />
    </filter>
    <linearGradient
       inkscape:collect="always"
       xlink:href="#rustGrad"
       id="linearGradient41"
       x1="-18.371173"
       y1="-152.4127"
       x2="18.371173"
       y2="-115.67035"
       gradientTransform="scale(1.3608276,0.73484692)"
       gradientUnits="userSpaceOnUse" />
    <linearGradient
       inkscape:collect="always"
       xlink:href="#rustGrad"
       id="linearGradient42"
       x1="-18.371173"
       y1="-152.4127"
       x2="18.371173"
       y2="-115.67035"
       gradientTransform="scale(1.3608276,0.73484692)"
       gradientUnits="userSpaceOnUse" />
    <linearGradient
       inkscape:collect="always"
       xlink:href="#rustGrad"
       id="linearGradient43"
       x1="-18.371173"
       y1="-152.4127"
       x2="18.371173"
       y2="-115.67035"
       gradientTransform="scale(1.3608276,0.73484692)"
       gradientUnits="userSpaceOnUse" />
    <linearGradient
       inkscape:collect="always"
       xlink:href="#rustGrad"
       id="linearGradient44"
       x1="-18.371173"
       y1="-152.4127"
       x2="18.371173"
       y2="-115.67035"
       gradientTransform="scale(1.3608276,0.73484692)"
       gradientUnits="userSpaceOnUse" />
    <linearGradient
       inkscape:collect="always"
       xlink:href="#rustGrad"
       id="linearGradient45"
       x1="-18.371173"
       y1="-152.4127"
       x2="18.371173"
       y2="-115.67035"
       gradientTransform="scale(1.3608276,0.73484692)"
       gradientUnits="userSpaceOnUse" />
    <linearGradient
       inkscape:collect="always"
       xlink:href="#rustGrad"
       id="linearGradient46"
       x1="-18.371173"
       y1="-152.4127"
       x2="18.371173"
       y2="-115.67035"
       gradientTransform="scale(1.3608276,0.73484692)"
       gradientUnits="userSpaceOnUse" />
    <linearGradient
       inkscape:collect="always"
       xlink:href="#rustGrad"
       id="linearGradient47"
       x1="-18.371173"
       y1="-152.4127"
       x2="18.371173"
       y2="-115.67035"
       gradientTransform="scale(1.3608276,0.73484692)"
       gradientUnits="userSpaceOnUse" />
    <linearGradient
       inkscape:collect="always"
       xlink:href="#rustGrad"
       id="linearGradient48"
       x1="-18.371173"
       y1="-152.4127"
       x2="18.371173"
       y2="-115.67035"
       gradientTransform="scale(1.3608276,0.73484692)"
       gradientUnits="userSpaceOnUse" />
    <linearGradient
       inkscape:collect="always"
       xlink:href="#rustGrad"
       id="linearGradient49"
       x1="-98"
       y1="-98"
       x2="98"
       y2="98"
       gradientUnits="userSpaceOnUse" />
    <linearGradient
       inkscape:collect="always"
       xlink:href="#rustGrad"
       id="linearGradient50"
       x1="-48.5"
       y1="-48.5"
       x2="48.5"
       y2="48.5"
       gradientUnits="userSpaceOnUse" />
  </defs>
  <rect
     width="512"
     height="512"
     rx="85"
     fill="url(#bgGrad)"
     id="rect8"
     x="0"
     y="0"
     style="display:inline" />
  <circle
     cx="256"
     cy="220"
     r="195"
     fill="none"
     stroke="#606a7c"
     stroke-width="1.5"
     stroke-dasharray="10, 15"
     opacity="0.25"
     id="circle8"
     style="display:inline" />
  <g
     font-family="'Cambria Math', 'Times New Roman', serif"
     font-size="34px"
     fill="#606a7c"
     font-style="italic"
     text-anchor="middle"
     id="g13"
     style="display:inline"
     transform="translate(0,20)">
    <path
       d="m 210.54492,5.5996094 q 0,-4.4492188 0.23242,-8.9814453 0.11621,-1.7597657 0.92969,-3.3203125 0.83008,-1.5771485 2.1582,-2.5732422 1.32813,-0.9960934 2.49024,-0.9960934 0.41504,0 1.14551,0.166015 0.74707,0.1660159 0.99609,0.3652346 v 0.1494141 l -0.29883,1.0957031 -0.26562,1.0791016 h -0.34864 q -1.16211,-1.1621094 -2.10839,-1.1621094 -0.87989,0 -1.46094,1.3115234 -0.58106,1.2949219 -0.58106,3.3535157 L 213.5,5.0185547 q 0,1.211914 -0.0664,3.8847656 -0.0498,2.6728517 -0.19922,7.3710937 -0.0996,1.826172 -0.94628,3.386719 -0.83008,1.560547 -2.125,2.506836 -1.27832,0.946289 -2.44043,0.946289 -0.48145,0 -1.16211,-0.199219 -0.68067,-0.182617 -0.87989,-0.348633 v -0.132812 q 0.0664,-0.215821 0.24903,-1.012696 0.16601,-0.780273 0.23242,-1.162109 h 0.33203 q 1.14551,1.145508 2.1084,1.145508 0.87988,0 1.46094,-1.311524 0.58105,-1.294921 0.58105,-3.336914 z M 228.4082,21.238281 h -2.75586 l 3.73536,-21.4492185 h -2.68946 l 0.13281,-0.8134766 2.82227,-0.6474609 0.19922,-1.0957031 q 0.66406,-3.7021485 2.22461,-5.428711 1.57715,-1.743164 4.25,-1.743164 1.27832,0 2.30762,0.3154297 l -0.58106,3.2539062 h -0.81348 l -0.31543,-1.8925781 q -0.48144,-0.3486328 -1.39453,-0.3486328 -1.01269,0 -1.59375,0.8798828 -0.58105,0.8632812 -1.0791,3.5361328 l -0.48144,2.5898438 h 3.46972 l -0.23242,1.3945312 h -3.46973 z m 10.47559,-9.413086 q 0,5.62793 3.71875,8.018555 l -0.24902,1.394531 q -3.43653,-2.008789 -4.94727,-4.565429 -1.49414,-2.556641 -1.49414,-6.208985 0,-2.9218748 0.74707,-6.291992 0.76367,-3.38671875 2.125,-5.8769531 1.37793,-2.4902344 3.48633,-4.3496094 2.1084,-1.8759766 5.51172,-3.5361328 l -0.24903,1.3945312 q -2.208,1.1621094 -3.70215,2.9384766 -1.49414,1.7597656 -2.47363,4.1337891 -0.97949,2.3740234 -1.72656,6.4580078 -0.74707,4.0839844 -0.74707,6.4912106 z m 9.51269,0.780274 q 0,0.464844 0.69727,0.647461 L 248.96094,14 h -3.07129 q -0.26563,-0.21582 -0.26563,-0.713867 0,-0.464844 0.51465,-1.145508 0.53125,-0.680664 1.75977,-1.80957 l 4.53222,-4.2167972 -2.85546,-6.55761718 -1.77637,-0.41503906 0.13281,-0.74707026 h 4.11719 l 2.40722,5.9433593 2.0586,-1.9589843 q 1.0625,-1.0126954 1.49414,-1.59375005 0.43164,-0.58105469 0.43164,-0.99609375 0,-0.16601563 -0.14941,-0.28222656 -0.14942,-0.1328125 -0.83008,-0.36523438 l 0.13281,-0.74707026 h 2.93848 q 0.34863,0.265625 0.34863,0.71386714 0,0.97949218 -2.29102,3.15429686 l -3.55273,3.3369141 3.1875,7.3046876 1.92578,0.348633 L 260.01758,14 h -4.25 l -2.77246,-6.640625 -2.83887,2.722656 q -0.91309,0.879883 -1.34473,1.460938 -0.41504,0.564453 -0.41504,1.0625 z m 11.12305,8.632812 0.24902,-1.394531 q 2.17481,-1.145508 3.63575,-2.888672 1.47754,-1.743164 2.44043,-4.017578 0.96289,-2.274414 1.75976,-6.3417969 0.79688,-4.0673828 0.79688,-6.77343747 0,-2.88867193 -0.92969,-4.84765623 -0.91309,-1.975586 -2.78906,-3.1708985 l 0.24902,-1.3945312 q 3.51953,2.0917969 4.99707,4.6152344 1.47754,2.5234375 1.47754,6.1591796 0,2.772461 -0.76367,6.1757813 -0.74707,3.40332 -2.125,5.943359 -1.37793,2.523438 -3.50293,4.399414 -2.125,1.892579 -5.49512,3.536133 z m 25.93164,-22.8603513 q 0.0664,-0.796875 1.12891,-6.8232422 l -2.55664,-0.3984375 0.13281,-0.7470703 h 5.37891 L 285.55078,12.837891 287.42676,13.25293 287.29395,14 h -4.73145 l 0.48145,-2.589844 q -2.80567,2.938477 -5.12989,2.938477 -2.04199,0 -3.2373,-1.527344 -1.19531,-1.543945 -1.19531,-4.0839843 0,-2.8388672 1.21191,-5.3291016 1.22851,-2.50683591 3.35351,-3.95117185 2.125,-1.46093755 4.66504,-1.46093755 1.56055,0 2.73926,0.381836 z m -0.38183,1.72656249 q -0.58106,-0.38183594 -1.19532,-0.59765625 -0.61425,-0.21582031 -1.49414,-0.21582031 -1.56054,0 -2.92187,1.22851562 -1.36133,1.22851565 -2.19141,3.38671875 -0.83008,2.1582031 -0.83008,4.4658203 0,1.7763677 0.73047,2.8388677 0.73047,1.0625 1.97559,1.0625 0.92969,0 2.00879,-0.597657 1.0957,-0.614258 2.1084,-1.7099607 z m 6.74023,12.50097681 q 0,0.464844 0.69727,0.647461 L 292.37402,14 h -3.07129 q -0.26562,-0.21582 -0.26562,-0.713867 0,-0.464844 0.51465,-1.145508 0.53125,-0.680664 1.75976,-1.80957 l 4.53223,-4.2167972 -2.85547,-6.55761718 -1.77637,-0.41503906 0.13282,-0.74707026 h 4.11718 l 2.40723,5.9433593 2.05859,-1.9589843 q 1.0625,-1.0126954 1.49414,-1.59375005 0.43165,-0.58105469 0.43165,-0.99609375 0,-0.16601563 -0.14942,-0.28222656 -0.14941,-0.1328125 -0.83008,-0.36523438 l 0.13282,-0.74707026 h 2.93847 q 0.34864,0.265625 0.34864,0.71386714 0,0.97949218 -2.29102,3.15429686 l -3.55273,3.3369141 3.1875,7.3046876 1.92578,0.348633 L 303.43066,14 h -4.25 l -2.77246,-6.640625 -2.83886,2.722656 q -0.91309,0.879883 -1.34473,1.460938 -0.41504,0.564453 -0.41504,1.0625 z"
       id="text9"
       aria-label="∫ f(x)dx" />
    <path
       d="m 442.25781,81.226562 q 2.57324,0 3.93457,2.025391 1.36133,2.008789 1.36133,5.777344 0,2.141601 -0.48144,4.847656 -2.00879,11.455077 -8.78223,11.455077 -2.47363,0 -3.73535,-1.94238 -1.24512,-1.94238 -1.24512,-5.578127 0,-2.440429 0.51465,-5.262695 1.99219,-11.322266 8.43359,-11.322266 z m -0.11621,1.328125 q -1.31152,0 -2.24121,0.996094 -0.91309,0.996094 -1.61035,3.038086 -0.68067,2.041992 -1.36133,5.959961 h 7.25488 q 0.49805,-3.204101 0.49805,-5.262695 0,-4.731446 -2.54004,-4.731446 z m -5.46191,11.455079 q -0.56446,3.419921 -0.56446,5.694336 0,4.316408 2.24122,4.316408 1.95898,0 3.2871,-2.34082 1.34473,-2.340823 2.29102,-7.669924 z"
       id="text10"
       aria-label="θ" />
    <path
       d="m 448.43115,262.62109 q -0.58105,0 -1.0957,0.19922 l -0.79688,1.37793 h -0.81347 l 0.34863,-2.78906 q 1.31152,-0.34863 2.49023,-0.34863 1.12891,0 1.82618,0.43164 0.71386,0.43164 1.1455,1.39453 0.43165,0.94629 0.74707,2.98828 l 2.60645,16.68457 q 0.21582,1.24512 1.62695,1.69336 L 456.3833,285 h -3.25391 l -1.61035,-12.21875 q -0.31543,0.73047 -0.96289,1.92578 -0.64746,1.17871 -1.01269,1.84277 L 444.6792,285 h -2.87207 l 0.13281,-0.71387 9.14746,-15.09082 -0.41504,-2.85547 q -0.28222,-2.02539 -0.81347,-2.87207 -0.53125,-0.84668 -1.42774,-0.84668 z"
       id="text11"
       aria-label="λ" />
    <path
       d="m 62.033691,263.81641 q -3.768554,0 -5.876953,2.44043 -2.091797,2.42382 -2.091797,6.74023 0,2.62305 1.095704,4.2168 1.112304,1.59375 3.104492,2.09179 L 57.717285,285 h -9.280273 l 0.647461,-5.47852 h 1.095703 l 0.53125,2.39063 q 1.328125,0.26562 4.499023,0.26562 h 1.195313 l 0.132812,-1.84277 q -2.639648,-0.64746 -4.283203,-2.67285 -1.626953,-2.04199 -1.626953,-4.86426 0,-3.12109 1.411133,-5.46191 1.411133,-2.35742 4.017578,-3.60254 2.606445,-1.24512 6.042969,-1.24512 4.200195,0 6.574218,2.00879 2.390625,1.99219 2.390625,5.54492 0,4.2002 -2.307617,6.92285 -2.291015,2.72266 -6.358398,3.37012 l -0.464844,1.84277 h 0.979492 q 3.353516,0 4.764649,-0.26562 l 1.361328,-2.39063 h 1.095703 L 68.856934,285 H 59.57666 l 1.444336,-5.69434 q 3.237305,-0.48144 4.930664,-2.80566 1.69336,-2.34082 1.69336,-6.3916 0,-3.02149 -1.460938,-4.64844 -1.460937,-1.64355 -4.150391,-1.64355 z"
       id="text12"
       aria-label="Ω" />
    <path
       d="m 76.050781,102.11133 q 0,0.74707 0.298828,1.1289 0.298828,0.36524 0.780274,0.36524 0.996094,0 2.058594,-0.49805 l 0.348632,0.78028 q -0.780273,0.59765 -1.693359,1.02929 -0.896484,0.41504 -2.041992,0.41504 -1.178711,0 -1.859375,-0.79687 -0.664063,-0.79688 -0.664063,-2.22461 0,-0.76367 0.265625,-2.27442 l 1.626953,-9.247068 H 70.422852 L 68.59668,98.30957 Q 67.583984,102.50977 66.704102,105 h -3.038086 l 0.132812,-0.74707 q 1.294922,-1.1123 1.892578,-2.24121 0.597656,-1.12891 1.195313,-3.469728 l 1.942383,-7.75293 h -2.22461 l -1.162109,2.125 h -0.946289 l 0.96289,-3.519531 h 15.837891 l -0.249023,1.394531 h -3.121094 l -1.59375,9.114258 q -0.282227,1.41113 -0.282227,2.20801 z"
       id="text13"
       aria-label="π" />
  </g>
  <g
     transform="matrix(1.45,0,0,1.45,256,220)"
     id="g30"
     style="display:inline">
    <path
       d="m -18,-112 h 36 l 7,27 h -50 z"
       fill="url(#rustGrad)"
       id="path13"
       style="fill:url(#linearGradient41)" />
    <path
       d="m -18,-112 h 36 l 7,27 h -50 z"
       fill="url(#rustGrad)"
       transform="rotate(45)"
       id="path14"
       style="fill:url(#linearGradient42)" />
    <path
       d="m -18,-112 h 36 l 7,27 h -50 z"
       fill="url(#rustGrad)"
       transform="rotate(90)"
       id="path15"
       style="fill:url(#linearGradient43)" />
    <path
       d="m -18,-112 h 36 l 7,27 h -50 z"
       fill="url(#rustGrad)"
       transform="rotate(135)"
       id="path16"
       style="fill:url(#linearGradient44)" />
    <path
       d="m -18,-112 h 36 l 7,27 h -50 z"
       fill="url(#rustGrad)"
       transform="scale(-1)"
       id="path17"
       style="fill:url(#linearGradient45)" />
    <path
       d="m -18,-112 h 36 l 7,27 h -50 z"
       fill="url(#rustGrad)"
       transform="rotate(-135)"
       id="path18"
       style="fill:url(#linearGradient46)" />
    <path
       d="m -18,-112 h 36 l 7,27 h -50 z"
       fill="url(#rustGrad)"
       transform="rotate(-90)"
       id="path19"
       style="fill:url(#linearGradient47)" />
    <path
       d="m -18,-112 h 36 l 7,27 h -50 z"
       fill="url(#rustGrad)"
       transform="rotate(-45)"
       id="path20"
       style="fill:url(#linearGradient48)" />
    <circle
       r="98"
       fill="url(#rustGrad)"
       id="circle20"
       cx="0"
       cy="0"
       style="fill:url(#linearGradient49)" />
    <circle
       r="60"
       fill="#1c1f28"
       id="circle21"
       cx="0"
       cy="0" />
    <circle
       r="45"
       fill="none"
       stroke="url(#rustGrad)"
       stroke-width="7"
       id="circle22"
       cx="0"
       cy="0"
       style="stroke:url(#linearGradient50)" />
    <circle
       cx="0"
       cy="-77"
       r="6"
       fill="#171a21"
       opacity="0.6"
       id="circle23" />
    <circle
       cx="0"
       cy="-77"
       r="6"
       fill="#171a21"
       opacity="0.6"
       transform="rotate(45)"
       id="circle24" />
    <circle
       cx="0"
       cy="-77"
       r="6"
       fill="#171a21"
       opacity="0.6"
       transform="rotate(90)"
       id="circle25" />
    <circle
       cx="0"
       cy="-77"
       r="6"
       fill="#171a21"
       opacity="0.6"
       transform="rotate(135)"
       id="circle26" />
    <circle
       cx="0"
       cy="-77"
       r="6"
       fill="#171a21"
       opacity="0.6"
       transform="scale(-1)"
       id="circle27" />
    <circle
       cx="0"
       cy="-77"
       r="6"
       fill="#171a21"
       opacity="0.6"
       transform="rotate(-135)"
       id="circle28" />
    <circle
       cx="0"
       cy="-77"
       r="6"
       fill="#171a21"
       opacity="0.6"
       transform="rotate(-90)"
       id="circle29" />
    <circle
       cx="0"
       cy="-77"
       r="6"
       fill="#171a21"
       opacity="0.6"
       transform="rotate(-45)"
       id="circle30" />
  </g>
  <g
     id="text32"
     style="font-size:10.6381px;text-anchor:middle;stroke-width:0.886511"
     aria-label="GODOTRaTeX">
    <path
       style="font-weight:900;font-size:56.7367px;font-family:Montserrat, 'Segoe UI', 'Helvetica Neue', sans-serif;letter-spacing:3;fill:url(#godotGrad)"
       d="m 87.475049,455.28099 q -3.989299,1.93925 -8.283336,2.90887 -4.294037,0.96962 -8.865109,0.96962 -10.333393,0 -16.372748,-5.76232 Q 47.9145,447.60713 47.9145,437.717 q 0,-10.00095 6.150169,-15.73557 6.15017,-5.73462 16.843708,-5.73462 4.127816,0 7.895488,0.7757 3.795374,0.7757 7.147494,2.29939 v 8.56037 q -3.462934,-1.96695 -6.898163,-2.93657 -3.407527,-0.96962 -6.842756,-0.96962 -6.371798,0 -9.834731,3.57375 -3.43523,3.54604 -3.43523,10.16717 0,6.56572 3.324416,10.13947 3.324416,3.57374 9.446882,3.57374 1.662208,0 3.075085,-0.19392 1.44058,-0.22163 2.576422,-0.66488 V 442.5374 H 70.85297 v -7.14749 h 16.622079 z m 31.285241,-31.30491 q -4.87581,0 -7.56305,3.60145 -2.68723,3.60145 -2.68723,10.13947 0,6.51031 2.68723,10.11176 2.68724,3.60145 7.56305,3.60145 4.90351,0 7.59075,-3.60145 2.68723,-3.60145 2.68723,-10.11176 0,-6.53802 -2.68723,-10.13947 -2.68724,-3.60145 -7.59075,-3.60145 z m 0,-7.72927 q 9.97325,0 15.62475,5.70691 5.65151,5.70692 5.65151,15.76328 0,10.02865 -5.65151,15.73557 -5.6515,5.70691 -15.62475,5.70691 -9.94555,0 -15.62476,-5.70691 -5.651503,-5.70692 -5.651503,-15.73557 0,-10.05636 5.651503,-15.76328 5.67921,-5.70691 15.62476,-5.70691 z m 43.0038,8.8097 v 25.23786 h 3.82308 q 6.53802,0 9.97325,-3.2413 3.46293,-3.24131 3.46293,-9.41918 0,-6.15017 -3.43523,-9.36377 -3.43523,-3.21361 -10.00095,-3.21361 z m -10.66583,-8.06171 h 11.24761 q 9.41918,0 14.01795,1.35747 4.62648,1.32977 7.92319,4.54337 2.90887,2.79805 4.32174,6.45491 1.41288,3.65686 1.41288,8.28334 0,4.68188 -1.41288,8.36644 -1.41287,3.65686 -4.32174,6.45491 -3.32441,3.2136 -7.9786,4.57107 -4.65418,1.32977 -13.96254,1.32977 h -11.24761 z m 68.98966,6.98128 q -4.87581,0 -7.56305,3.60145 -2.68723,3.60145 -2.68723,10.13947 0,6.51031 2.68723,10.11176 2.68724,3.60145 7.56305,3.60145 4.90351,0 7.59075,-3.60145 2.68723,-3.60145 2.68723,-10.11176 0,-6.53802 -2.68723,-10.13947 -2.68724,-3.60145 -7.59075,-3.60145 z m 0,-7.72927 q 9.97325,0 15.62475,5.70691 5.65151,5.70692 5.65151,15.76328 0,10.02865 -5.65151,15.73557 -5.6515,5.70691 -15.62475,5.70691 -9.94555,0 -15.62476,-5.70691 -5.6515,-5.70692 -5.6515,-15.73557 0,-10.05636 5.6515,-15.76328 5.67921,-5.70691 15.62476,-5.70691 z m 27.40675,0.74799 h 38.11997 v 8.06171 h -13.71321 v 33.29957 h -10.66584 v -33.29957 h -13.74092 z"
       id="path50" />
    <path
       style="font-style:italic;font-weight:bold;font-size:63.8288px;font-family:'Computer Modern', 'Cambria Math', 'Times New Roman', serif;fill:url(#rustGrad)"
       d="m 306.12323,440.65356 -2.58681,14.58588 5.20479,0.84149 -0.374,2.27515 h -19.54134 l 0.374,-2.27515 5.11129,-0.84149 6.26445,-35.59204 -5.20479,-0.81032 0.40516,-2.27515 h 16.67403 q 8.1656,0 12.09257,2.58681 3.92696,2.58681 3.92696,7.94743 0,4.86196 -2.64914,8.10327 -2.61798,3.24131 -7.6046,4.58146 l 6.26444,15.45854 4.58147,0.84149 -0.374,2.27515 h -12.46656 l -6.48262,-17.70252 z m 2.30631,-3.4283 q 5.11129,0 8.00977,-2.52448 2.89848,-2.55565 2.89848,-7.10594 0,-4.05164 -1.90115,-5.82812 -1.86999,-1.77649 -5.51646,-1.77649 h -2.15048 l -3.05431,17.23503 z m 48.71309,18.32584 3.39714,0.99733 -0.24933,1.80765 h -10.81475 l -0.12466,-4.30096 q -1.83882,2.30631 -4.1763,3.64646 -2.30631,1.30899 -4.70613,1.30899 -3.8958,0 -6.07745,-2.80497 -2.15048,-2.80498 -2.15048,-7.7916 0,-5.45413 2.27515,-10.09792 2.27515,-4.67496 6.32678,-7.32411 4.0828,-2.68031 8.97592,-2.68031 4.30097,0 7.82277,1.40249 l 2.55565,-1.15316 h 1.68298 z m -16.70519,-8.13443 q 0,3.21014 1.05965,5.11129 1.09083,1.86999 2.71148,1.86999 1.24666,0 2.77381,-1.24666 1.52716,-1.24666 2.74264,-3.08547 l 3.08548,-17.54669 q -1.40249,-1.05966 -3.86464,-1.05966 -2.30631,0 -4.26979,2.21282 -1.96349,2.18164 -3.11664,5.95278 -1.12199,3.73997 -1.12199,7.7916 z m 28.17443,10.93941 0.37399,-2.27515 6.79428,-0.84149 6.23328,-35.37387 h -1.90115 q -1.74532,0 -3.92697,0.21816 -2.15048,0.21817 -3.08547,0.40517 l -2.33748,7.76043 h -2.71148 l 2.05698,-11.6874 h 34.37655 l -2.05698,11.6874 h -2.74265 l 0.40517,-7.76043 q -0.87266,-0.187 -3.21014,-0.374 -2.30632,-0.187 -3.80231,-0.187 h -1.83881 l -6.23329,35.31154 6.48262,0.84149 -0.374,2.27515 z m 54.85289,-23.68647 q 0,2.80498 -2.05698,5.17362 -2.05698,2.36865 -5.95278,3.8958 -3.86464,1.52716 -8.78893,1.90116 -0.15583,0.62332 -0.15583,2.11931 0,7.35527 5.64112,7.35527 2.30631,0 4.2698,-0.87266 1.96348,-0.90382 3.67763,-2.05698 l 1.37132,1.96348 q -2.74264,2.30632 -5.95278,3.58414 -3.21014,1.24666 -6.17095,1.24666 -5.51645,0 -8.41493,-2.77381 -2.89847,-2.77381 -2.89847,-8.13443 0,-5.36063 2.27514,-9.94209 2.27515,-4.58146 6.01512,-7.19944 3.73997,-2.64914 7.76044,-2.64914 4.30096,0 6.82544,1.74532 2.55564,1.71415 2.55564,4.64379 z m -16.30003,7.85393 q 3.8023,-0.40516 6.23328,-2.74264 2.46215,-2.36865 2.46215,-5.51645 0,-1.30899 -0.65449,-1.96349 -0.62333,-0.65449 -1.49599,-0.65449 -2.15048,0 -4.02047,3.17897 -1.83882,3.17898 -2.52448,7.6981 z m 25.71229,12.7159 4.70612,0.84149 -0.37399,2.27515 H 423.2466 l 0.37399,-2.27515 4.76846,-0.84149 14.36772,-16.67403 -7.41761,-18.91801 -4.55029,-0.81032 0.40516,-2.27515 h 19.10501 l -0.40517,2.27515 -5.14245,0.81032 4.45679,11.43807 9.84859,-11.43807 -4.70613,-0.81032 0.40516,-2.27515 h 13.99372 l -0.40516,2.27515 -4.76846,0.81032 -12.96523,15.02221 8.0721,20.56983 4.58146,0.84149 -0.37399,2.27515 h -19.10501 l 0.374,-2.27515 5.14245,-0.84149 -5.14245,-13.08989 z"
       id="path51" />
  </g>
  <path
     d="m 288.43504,187.69 q -0.91,-4.81 -1.82,-7.28 -0.91,-2.6 -3.12,-4.81 -2.08,-2.34 -5.98,-3.12 -3.77,-0.91 -10.14,-0.91 h -34.84 l 24.44,48.1 -26.13,45.76 h 42.64 q 11.18,0 15.47,-2.34 4.42,-2.47 7.67,-10.4 h 3.38 l -7.02,27.3 h -81.51 l 31.46,-53.04 -30.29,-60.71 h 77.87 l 1.3,21.45 z"
     id="text31"
     style="font-size:130px;font-family:'Cambria Math', 'Computer Modern', Georgia, serif;text-anchor:middle;fill:url(#mathGrad);filter:url(#glow)"
     aria-label="∑" />
  <g
     filter="url(#dropShadow)"
     id="g32"
     style="display:inline" />
</svg>
